<?xml version="1.0" standalone="no"?>
<!DOCTYPE svg PUBLIC "-//W3C//DTD SVG 20010904//EN"
 "http://www.w3.org/TR/2001/REC-SVG-20010904/DTD/svg10.dtd">
<svg version="1.0" xmlns="http://www.w3.org/2000/svg"
 width="512.000000pt" height="512.000000pt" viewBox="0 0 512.000000 512.000000"
 preserveAspectRatio="xMidYMid meet">

<g transform="translate(0.000000,512.000000) scale(0.100000,-0.100000)"
fill="#000000" stroke="none">
<path d="M1435 4310 c-476 -74 -785 -420 -1020 -1141 -99 -305 -184 -680 -227
-1002 -29 -219 -31 -583 -4 -732 39 -218 107 -368 215 -475 78 -77 142 -113
247 -140 211 -54 409 10 628 203 35 31 117 118 182 193 64 75 142 156 173 180
114 90 270 148 488 181 171 25 729 26 891 0 309 -49 436 -119 637 -352 63 -73
138 -154 167 -181 170 -153 326 -230 488 -241 165 -10 315 49 435 171 248 252
289 736 129 1535 -184 915 -458 1462 -842 1682 -153 87 -295 123 -492 124
-145 0 -177 -5 -436 -75 -233 -63 -314 -74 -534 -74 -218 0 -294 10 -520 71
-74 20 -171 44 -215 55 -93 22 -301 31 -390 18z m253 -817 c64 -48 67 -57 70
-263 l3 -189 189 -3 c206 -3 215 -6 264 -72 29 -39 29 -133 0 -172 -49 -66
-58 -69 -264 -72 l-189 -3 -3 -189 c-3 -206 -6 -215 -72 -264 -39 -29 -133
-29 -172 0 -66 49 -69 58 -72 264 l-3 189 -189 3 c-206 3 -215 6 -264 72 -29
39 -29 133 0 172 49 66 58 69 265 72 l189 3 0 174 c0 99 5 186 11 202 14 37
47 72 84 89 40 19 119 12 153 -13z m1786 -10 c55 -39 81 -93 81 -168 0 -113
-77 -190 -189 -190 -142 0 -233 118 -197 253 14 51 75 117 123 131 56 17 137
6 182 -26z m-440 -440 c55 -39 81 -93 81 -168 0 -113 -77 -190 -189 -190 -142
0 -233 118 -197 253 14 51 75 117 123 131 56 17 137 6 182 -26z m880 0 c55
-39 81 -93 81 -168 0 -113 -77 -190 -189 -190 -142 0 -233 118 -197 253 14 51
75 117 123 131 56 17 137 6 182 -26z m-440 -440 c55 -39 81 -93 81 -168 0
-113 -77 -190 -189 -190 -142 0 -233 118 -197 253 14 51 75 117 123 131 56 17
137 6 182 -26z"/>
</g>
</svg>
