<?xml version="1.0" standalone="no"?>
<!DOCTYPE svg PUBLIC "-//W3C//DTD SVG 20010904//EN"
 "http://www.w3.org/TR/2001/REC-SVG-20010904/DTD/svg10.dtd">
<svg version="1.0" xmlns="http://www.w3.org/2000/svg"
 width="128.000000pt" height="128.000000pt" viewBox="0 0 128.000000 128.000000"
 preserveAspectRatio="xMidYMid meet">

<g transform="translate(0.000000,128.000000) scale(0.100000,-0.100000)"
fill="#000000" stroke="none">
<path d="M542 1109 c-58 -11 -148 -53 -194 -90 l-37 -29 -3 51 c-3 59 -25 82
-55 63 -15 -9 -18 -29 -21 -113 -4 -144 -6 -142 130 -139 93 3 113 6 122 21
19 30 -4 51 -65 57 l-54 5 32 23 c18 12 58 35 90 50 50 23 71 27 154 27 90 0
99 -2 171 -37 91 -45 147 -103 191 -196 29 -61 32 -76 32 -162 0 -86 -3 -102
-31 -160 -54 -113 -128 -181 -242 -219 -236 -80 -489 85 -519 338 -9 70 -28
95 -60 75 -64 -40 12 -269 125 -376 269 -257 703 -133 797 229 87 334 -219
650 -563 582z"/>
<path d="M612 828 c-14 -14 -17 -235 -3 -257 10 -15 236 -64 262 -56 25 8 34
44 17 61 -8 8 -57 23 -109 33 l-94 18 -3 93 c-1 52 -8 100 -14 107 -13 16 -40
17 -56 1z"/>
</g>
</svg>
